<?xml version="1.0" encoding="UTF-8" standalone="no"?>
<!-- Created with Inkscape (http://www.inkscape.org/) -->
<svg
   xmlns:dc="http://purl.org/dc/elements/1.1/"
   xmlns:cc="http://web.resource.org/cc/"
   xmlns:rdf="http://www.w3.org/1999/02/22-rdf-syntax-ns#"
   xmlns:svg="http://www.w3.org/2000/svg"
   xmlns="http://www.w3.org/2000/svg"
   xmlns:xlink="http://www.w3.org/1999/xlink"
   xmlns:sodipodi="http://sodipodi.sourceforge.net/DTD/sodipodi-0.dtd"
   xmlns:inkscape="http://www.inkscape.org/namespaces/inkscape"
   width="841.88977pt"
   height="595.27557pt"
   id="svg2"
   sodipodi:version="0.32"
   inkscape:version="0.44"
   sodipodi:docbase="/home/capitn/svn/oar/trunk/Docs/html"
   sodipodi:docname="interactive_oarsub_scheme.svg"
   version="1.0"
   inkscape:export-filename="/home/capitn/svn/oar/trunk/Docs/html/interactive_oarsub_scheme.png"
   inkscape:export-xdpi="280"
   inkscape:export-ydpi="280">
  <defs
     id="defs4">
    <marker
       inkscape:stockid="Arrow2Mstart"
       orient="auto"
       refY="0.0"
       refX="0.0"
       id="Arrow2Mstart"
       style="overflow:visible">
      <path
         id="path2353"
         style="font-size:12.0;fill-rule:evenodd;stroke-width:0.62500000;stroke-linejoin:round"
         d="M 8.7185878,4.0337352 L -2.2072895,0.016013256 L 8.7185884,-4.0017078 C 6.9730900,-1.6296469 6.9831476,1.6157441 8.7185878,4.0337352 z "
         transform="scale(0.6) translate(-5,0)" />
    </marker>
    <radialGradient
       inkscape:collect="always"
       xlink:href="#linearGradient581"
       id="radialGradient9306"
       gradientUnits="userSpaceOnUse"
       gradientTransform="scale(2.145447,0.466103)"
       cx="181.48902"
       cy="855.20116"
       fx="181.48902"
       fy="855.20116"
       r="91.181481" />
    <linearGradient
       id="linearGradient581">
      <stop
         id="stop582"
         offset="0.00000000"
         style="stop-color:#cacaca;stop-opacity:1;" />
      <stop
         id="stop583"
         offset="1.00000000"
         style="stop-color:#ffffff;stop-opacity:1;" />
    </linearGradient>
    <radialGradient
       id="radialGradient599"
       xlink:href="#linearGradient581"
       gradientTransform="scale(2.145447,0.466103)"
       cx="181.48902"
       cy="855.20116"
       fx="181.48902"
       fy="855.20116"
       r="91.181481"
       gradientUnits="userSpaceOnUse" />
    <linearGradient
       id="linearGradient665"
       x1="358.23094"
       x2="276.81903"
       y1="2069.6238"
       y2="1923.3781"
       xlink:href="#linearGradient575"
       gradientTransform="matrix(1.693285,1.986403e-16,4.04374e-19,0.590568,175.5386,-716.5646)"
       gradientUnits="userSpaceOnUse" />
    <linearGradient
       id="linearGradient663"
       x1="1242.4075"
       x2="1033.0624"
       y1="3204.4711"
       y2="2958.4065"
       xlink:href="#linearGradient575"
       gradientTransform="matrix(1.684509,0,7.20867e-17,0.593645,-1247.529,-1614.976)"
       gradientUnits="userSpaceOnUse" />
    <linearGradient
       id="linearGradient575">
      <stop
         id="stop576"
         offset="0"
         style="stop-color:#000;stop-opacity:1;" />
      <stop
         id="stop577"
         offset="1"
         style="stop-color:#fff;stop-opacity:1;" />
    </linearGradient>
    <linearGradient
       id="linearGradient743"
       x1="144.97845"
       x2="53.837952"
       y1="2784.8024"
       y2="2633.4544"
       xlink:href="#linearGradient575"
       gradientTransform="matrix(2.951532,0,0,0.338807,152.5023,-805.0177)"
       gradientUnits="userSpaceOnUse" />
    <linearGradient
       id="linearGradient768"
       x1="71.477748"
       x2="93.511581"
       y1="2761.456"
       y2="2837.3008"
       xlink:href="#linearGradient747"
       gradientTransform="matrix(3.012348,0,0,0.331967,-21,-437)"
       gradientUnits="userSpaceOnUse" />
    <linearGradient
       id="linearGradient747">
      <stop
         id="stop748"
         offset="0.00000000"
         style="stop-color:#caf0fd;stop-opacity:1;" />
      <stop
         id="stop749"
         offset="1.00000000"
         style="stop-color:#005eff;stop-opacity:1;" />
    </linearGradient>
    <linearGradient
       id="linearGradient746"
       x1="223.16883"
       x2="244.96518"
       y1="1602.7709"
       y2="1649.0841"
       xlink:href="#linearGradient747"
       gradientTransform="matrix(1.761388,0,0,0.567734,152.5023,-805.0177)"
       gradientUnits="userSpaceOnUse" />
    <marker
       inkscape:stockid="Arrow2Mend"
       orient="auto"
       refY="0.0"
       refX="0.0"
       id="Arrow2Mend"
       style="overflow:visible;">
      <path
         id="path2350"
         style="font-size:12.0;fill-rule:evenodd;stroke-width:0.62500000;stroke-linejoin:round;"
         d="M 8.7185878,4.0337352 L -2.2072895,0.016013256 L 8.7185884,-4.0017078 C 6.9730900,-1.6296469 6.9831476,1.6157441 8.7185878,4.0337352 z "
         transform="scale(0.6) rotate(180) translate(-5,0)" />
    </marker>
    <marker
       inkscape:stockid="Arrow1Lend"
       orient="auto"
       refY="0.0"
       refX="0.0"
       id="Arrow1Lend"
       style="overflow:visible;">
      <path
         id="path2374"
         d="M 0.0,0.0 L 5.0,-5.0 L -12.5,0.0 L 5.0,5.0 L 0.0,0.0 z "
         style="fill-rule:evenodd;stroke:#000000;stroke-width:1.0pt;marker-start:none;"
         transform="scale(0.8) rotate(180)" />
    </marker>
    <linearGradient
       inkscape:collect="always"
       xlink:href="#linearGradient575"
       id="linearGradient5895"
       gradientUnits="userSpaceOnUse"
       gradientTransform="matrix(1.693285,9.826457e-16,-1.55509e-19,0.590568,-38.85288,-456.5782)"
       x1="358.23094"
       y1="2069.6238"
       x2="276.81903"
       y2="1923.3781" />
    <linearGradient
       inkscape:collect="always"
       xlink:href="#linearGradient575"
       id="linearGradient5897"
       gradientUnits="userSpaceOnUse"
       gradientTransform="matrix(1.684509,0,2.127846e-16,0.593645,-793.0008,-876.6814)"
       x1="1242.4075"
       y1="3204.4711"
       x2="1033.0624"
       y2="2958.4065" />
    <linearGradient
       inkscape:collect="always"
       xlink:href="#linearGradient575"
       id="linearGradient5899"
       gradientUnits="userSpaceOnUse"
       gradientTransform="matrix(2.951532,0,0,0.338807,-33,-437)"
       x1="144.97845"
       y1="2784.8024"
       x2="53.837952"
       y2="2633.4544" />
    <linearGradient
       inkscape:collect="always"
       xlink:href="#linearGradient747"
       id="linearGradient5901"
       gradientUnits="userSpaceOnUse"
       gradientTransform="matrix(3.012348,0,0,0.331967,-21,-437)"
       x1="71.477748"
       y1="2761.456"
       x2="93.511581"
       y2="2837.3008" />
    <linearGradient
       inkscape:collect="always"
       xlink:href="#linearGradient747"
       id="linearGradient5903"
       gradientUnits="userSpaceOnUse"
       gradientTransform="matrix(1.761388,0,0,0.567734,-33,-437)"
       x1="223.16883"
       y1="1602.7709"
       x2="244.96518"
       y2="1649.0841" />
    <linearGradient
       inkscape:collect="always"
       xlink:href="#linearGradient747"
       id="linearGradient9236"
       gradientUnits="userSpaceOnUse"
       gradientTransform="matrix(3.012348,0,0,0.331967,164.5023,-805.0177)"
       x1="71.477748"
       y1="2761.456"
       x2="93.511581"
       y2="2837.3008" />
    <radialGradient
       inkscape:collect="always"
       xlink:href="#linearGradient581"
       id="radialGradient9321"
       gradientUnits="userSpaceOnUse"
       gradientTransform="scale(2.145447,0.466103)"
       cx="181.48902"
       cy="855.20116"
       fx="181.48902"
       fy="855.20116"
       r="91.181481" />
    <linearGradient
       inkscape:collect="always"
       xlink:href="#linearGradient575"
       id="linearGradient9323"
       gradientUnits="userSpaceOnUse"
       gradientTransform="matrix(1.693285,1.202399e-15,-1.545085e-19,0.590568,-38.85288,-456.5782)"
       x1="358.23094"
       y1="2069.6238"
       x2="276.81903"
       y2="1923.3781" />
    <linearGradient
       inkscape:collect="always"
       xlink:href="#linearGradient575"
       id="linearGradient9325"
       gradientUnits="userSpaceOnUse"
       gradientTransform="matrix(1.684509,0,2.186095e-16,0.593645,-793.0008,-876.6814)"
       x1="1242.4075"
       y1="3204.4711"
       x2="1033.0624"
       y2="2958.4065" />
    <linearGradient
       inkscape:collect="always"
       xlink:href="#linearGradient575"
       id="linearGradient9327"
       gradientUnits="userSpaceOnUse"
       gradientTransform="matrix(2.951532,0,0,0.338807,-33,-437)"
       x1="144.97845"
       y1="2784.8024"
       x2="53.837952"
       y2="2633.4544" />
    <linearGradient
       inkscape:collect="always"
       xlink:href="#linearGradient747"
       id="linearGradient9329"
       gradientUnits="userSpaceOnUse"
       gradientTransform="matrix(3.012348,0,0,0.331967,-21,-437)"
       x1="71.477748"
       y1="2761.456"
       x2="93.511581"
       y2="2837.3008" />
    <linearGradient
       inkscape:collect="always"
       xlink:href="#linearGradient747"
       id="linearGradient9331"
       gradientUnits="userSpaceOnUse"
       gradientTransform="matrix(1.761388,0,0,0.567734,-33,-437)"
       x1="223.16883"
       y1="1602.7709"
       x2="244.96518"
       y2="1649.0841" />
  </defs>
  <sodipodi:namedview
     id="base"
     pagecolor="#ffffff"
     bordercolor="#666666"
     borderopacity="1.0"
     inkscape:pageopacity="0.0"
     inkscape:pageshadow="2"
     inkscape:zoom="0.98994949"
     inkscape:cx="762.91202"
     inkscape:cy="340.89026"
     inkscape:document-units="px"
     inkscape:current-layer="layer1"
     showgrid="true"
     inkscape:grid-bbox="true"
     inkscape:grid-points="true"
     inkscape:window-width="1082"
     inkscape:window-height="989"
     inkscape:window-x="26"
     inkscape:window-y="0" />
  <metadata
     id="metadata7">
    <rdf:RDF>
      <cc:Work
         rdf:about="">
        <dc:format>image/svg+xml</dc:format>
        <dc:type
           rdf:resource="http://purl.org/dc/dcmitype/StillImage" />
      </cc:Work>
    </rdf:RDF>
  </metadata>
  <g
     inkscape:label="Layer 1"
     inkscape:groupmode="layer"
     id="layer1">
    <text
       xml:space="preserve"
       style="font-size:49.76705551px;font-style:normal;font-weight:normal;fill:#000000;fill-opacity:1;stroke:none;stroke-width:1px;stroke-linecap:butt;stroke-linejoin:miter;stroke-opacity:1;font-family:Bitstream Vera Sans"
       x="398.98483"
       y="63.424973"
       id="text2198"
       transform="scale(1.000549,0.999451)"><tspan
         sodipodi:role="line"
         id="tspan2200"
         x="398.98483"
         y="63.424973">OARSUB -I</tspan></text>
    <path
       style="fill:none;fill-opacity:0.75;fill-rule:evenodd;stroke:#000000;stroke-width:3;stroke-linecap:round;stroke-linejoin:miter;marker-end:url(#Arrow2Mend);stroke-miterlimit:4;stroke-dasharray:none;stroke-opacity:1"
       d="M 87.203074,98.523052 L 87.203074,661.09448"
       id="path2202"
       sodipodi:nodetypes="cc" />
    <flowRoot
       xml:space="preserve"
       id="flowRoot2386"
       transform="matrix(2.986633,0,0,3.15633,-65.48033,-1501.396)"><flowRegion
         id="flowRegion2388"><rect
           id="rect2390"
           width="245.71428"
           height="57.142857"
           x="35.714287"
           y="686.9516" /></flowRegion><flowPara
         id="flowPara2392">Time</flowPara></flowRoot>    <g
       id="g9361">
      <path
         d="M 223.11884,39.855062 C 212.88104,39.855062 204.58759,46.503038 204.58759,54.698812 C 204.58759,60.291521 208.5017,65.104622 214.21259,67.636312 C 206.64689,69.092268 199.80334,71.602602 195.74384,75.448812 C 187.1138,86.903364 190.30674,95.912288 190.15009,97.542562 C 190.92283,98.408618 195.85542,101.73442 199.52509,101.48006 C 199.15391,93.994167 201.30634,83.511312 201.30634,83.511312 C 200.83639,83.887524 199.13584,98.017805 199.68134,101.51131 C 199.63188,101.51612 199.57503,101.4766 199.52509,101.48006 C 199.52703,101.51925 199.52301,101.56605 199.52509,101.60506 C 199.92508,108.09492 203.17773,123.00725 204.58759,124.26131 C 218.40675,126.24467 231.61058,125.97641 246.05634,124.57381 C 246.05634,124.57381 246.45822,120.76803 246.55634,119.85506 C 247.76276,115.78957 248.97838,109.71945 248.02509,105.38631 C 248.11712,104.47698 248.11989,104.53269 248.21259,103.60506 C 247.42376,92.562438 245.33012,85.066501 245.40009,85.230062 C 247.03657,90.033637 248.21259,103.60506 248.21259,103.60506 C 252.99427,102.79067 256.36842,101.98804 261.15009,99.292562 C 262.71661,97.662281 263.4915,88.331536 256.40009,75.667562 C 253.41921,70.344247 244.45622,67.38625 234.18134,66.542562 C 238.70008,63.833875 241.68134,59.562378 241.68134,54.698812 C 241.68134,54.644962 241.65081,54.596278 241.65009,54.542562 C 241.76731,53.972725 241.99603,53.205753 242.05634,52.823812 C 241.79961,52.65491 241.65915,52.685476 241.43134,52.573812 C 240.13685,45.388508 232.451,39.855062 223.11884,39.855062 z "
         id="path852"
         style="fill-opacity:0.5;fill-rule:evenodd;stroke-width:1.25;stroke-linejoin:round" />
      <path
         style="fill:#8400ff;fill-opacity:1;fill-rule:evenodd;stroke:#000000;stroke-width:1.25;stroke-linejoin:round;stroke-dasharray:none"
         id="path828"
         d="M 188.07998,94.431795 C 188.23663,92.80152 185.03364,83.79217 193.66368,72.337618 C 206.67997,60.005225 247.23097,59.863987 254.32238,72.52796 C 261.41379,85.191933 260.64168,94.52149 259.07516,96.151771 C 254.29348,98.847251 250.92167,99.661645 246.13998,100.47604 C 246.13998,100.47604 244.96231,86.920836 243.32583,82.117261 C 243.25587,81.9537 245.35115,89.437879 246.13998,100.4805 C 245.049,111.39772 243.95801,121.4371 243.95801,121.4371 C 229.51226,122.8397 216.31971,123.11364 202.50056,121.13028 C 201.09069,119.87622 197.83447,104.97036 197.43447,98.480496 C 197.03448,90.987391 199.2276,80.388358 199.2276,80.388358 C 198.75765,80.764572 197.04563,94.886343 197.59113,98.37985 C 193.90702,98.738211 188.86324,95.309636 188.07998,94.431795 z "
         sodipodi:nodetypes="ccccccccccccc" />
      <path
         style="fill:#8400ff;fill-opacity:1;fill-rule:evenodd;stroke:#000000;stroke-width:1.25;stroke-linejoin:round;stroke-dasharray:none"
         id="path827"
         d="M 239.59407,51.5669 C 239.59407,59.762674 231.28512,66.414318 221.04731,66.414318 C 210.80951,66.414318 202.50056,59.762674 202.50056,51.5669 C 202.50056,43.371127 210.80951,36.719482 221.04731,36.719482 C 231.28512,36.719482 239.59407,43.371127 239.59407,51.5669 z " />
      <path
         style="fill:#b464ff;fill-opacity:1;fill-rule:evenodd;stroke:none;stroke-width:1pt;stroke-linecap:butt;stroke-linejoin:miter;stroke-opacity:1"
         id="path830"
         d="M 220.77654,37.839819 C 212.69976,35.147557 193.67444,49.147318 208.75111,61.711206 C 217.9048,59.916365 200.31535,45.378151 220.77654,37.839819 z "
         sodipodi:nodetypes="ccc" />
      <path
         style="fill:#ffffff;fill-opacity:0.25;fill-rule:evenodd;stroke:none;stroke-width:1pt;stroke-linecap:butt;stroke-linejoin:miter;stroke-opacity:1"
         id="path831"
         d="M 211.44337,65.300889 C 210.54595,65.121405 198.52051,67.275214 194.21289,73.19819 C 190.62321,75.351999 187.21301,85.582595 188.64889,93.838863 C 190.44373,95.274736 193.85392,97.60803 194.75135,97.069578 C 199.7769,86.480014 182.90539,75.531483 211.44337,65.300889 z "
         sodipodi:nodetypes="ccccc" />
      <path
         style="fill:#ffffff;fill-opacity:0.25;fill-rule:evenodd;stroke:none;stroke-width:1pt;stroke-linecap:butt;stroke-linejoin:miter;stroke-opacity:1"
         id="path832"
         d="M 199.41793,83.2493 C 195.82825,94.197831 199.23845,113.7616 203.1871,120.22303 C 207.13575,121.47942 212.69976,122.01787 213.95614,121.6589 C 215.03305,112.50521 199.05896,113.7616 199.41793,83.2493 z "
         sodipodi:nodetypes="cccc" />
      <path
         style="fill:#000000;fill-opacity:0.25;fill-rule:evenodd;stroke:none;stroke-width:1pt;stroke-linecap:butt;stroke-linejoin:miter;stroke-opacity:1"
         id="path833"
         d="M 221.85345,65.659857 C 237.1096,61.531723 233.16095,45.198668 239.98134,49.68577 C 239.44289,53.095968 237.28908,65.121405 221.85345,65.659857 z "
         sodipodi:nodetypes="ccc" />
      <path
         style="fill:#000000;fill-opacity:0.25;fill-rule:evenodd;stroke:none;stroke-width:1pt;stroke-linecap:butt;stroke-linejoin:miter;stroke-opacity:1"
         id="path834"
         d="M 250.5709,98.684935 C 250.5709,98.684935 258.82717,97.069578 259.18614,95.454221 C 261.16047,89.172276 255.77595,74.275095 253.26317,71.762317 C 241.05825,67.454698 266.54499,96.710609 250.5709,98.684935 z "
         sodipodi:nodetypes="cccc" />
      <path
         style="fill:#000000;fill-opacity:0.23999999;fill-rule:evenodd;stroke:none;stroke-width:1pt;stroke-linecap:butt;stroke-linejoin:miter;stroke-opacity:1"
         id="path835"
         d="M 234.23785,121.6589 C 234.23785,121.6589 242.13515,122.19735 243.03257,120.76148 C 243.92999,119.32561 248.05813,106.76172 245.54535,100.65926 C 237.28908,93.838864 248.59658,121.47942 234.23785,121.6589 z "
         sodipodi:nodetypes="cccc" />
    </g>
    <g
       id="g9464"
       transform="matrix(1.286831,0,0,1,669.4784,-104.1339)">
      <rect
         y="234.61948"
         x="120.525"
         height="24"
         width="127"
         id="rect9462"
         style="opacity:1;fill:#4f6493;fill-opacity:0.77142861;stroke:#000000;stroke-width:0.1;stroke-linecap:round;stroke-linejoin:round;stroke-miterlimit:4;stroke-dasharray:none;stroke-dashoffset:0;stroke-opacity:1" />
      <rect
         y="232.61948"
         x="118.525"
         height="24"
         width="127"
         id="rect9460"
         style="opacity:1;fill:#82a1ee;fill-opacity:1;stroke:#000000;stroke-width:1.04999995;stroke-linecap:round;stroke-linejoin:round;stroke-miterlimit:4;stroke-dasharray:none;stroke-dashoffset:0;stroke-opacity:1" />
    </g>
    <g
       id="g9468"
       transform="translate(42,-105.1686)">
      <rect
         y="234.61948"
         x="120.525"
         height="24"
         width="127"
         id="rect9470"
         style="opacity:1;fill:#4f6493;fill-opacity:0.77142861;stroke:#000000;stroke-width:0.1;stroke-linecap:round;stroke-linejoin:round;stroke-miterlimit:4;stroke-dasharray:none;stroke-dashoffset:0;stroke-opacity:1" />
      <rect
         y="232.61948"
         x="118.525"
         height="24"
         width="127"
         id="rect9472"
         style="opacity:1;fill:#82a1ee;fill-opacity:1;stroke:#000000;stroke-width:1.04999995;stroke-linecap:round;stroke-linejoin:round;stroke-miterlimit:4;stroke-dasharray:none;stroke-dashoffset:0;stroke-opacity:1" />
    </g>
    <text
       xml:space="preserve"
       style="font-size:18.87080956px;font-style:normal;font-weight:normal;fill:#000000;fill-opacity:1;stroke:none;stroke-width:1px;stroke-linecap:butt;stroke-linejoin:miter;stroke-opacity:1;font-family:Bitstream Vera Sans"
       x="168.75761"
       y="143.42664"
       id="text5583"
       transform="scale(0.984704,1.015534)"><tspan
         sodipodi:role="line"
         id="tspan5585"
         x="168.75761"
         y="143.42664">Frontal node</tspan></text>
    <text
       xml:space="preserve"
       style="font-size:18.87083626px;font-style:normal;font-weight:normal;fill:#000000;fill-opacity:1;stroke:none;stroke-width:1px;stroke-linecap:butt;stroke-linejoin:miter;stroke-opacity:1;font-family:Bitstream Vera Sans"
       x="839.80249"
       y="143.87332"
       id="text5595"
       transform="scale(0.984704,1.015534)"><tspan
         sodipodi:role="line"
         id="tspan5597"
         x="839.80249"
         y="143.87332">Computing node</tspan></text>
    <g
       id="g9474"
       transform="matrix(0.911021,0,0,1,374.4995,-105.5875)">
      <rect
         y="234.61948"
         x="120.525"
         height="24"
         width="127"
         id="rect9476"
         style="opacity:1;fill:#4f6493;fill-opacity:0.77142861;stroke:#000000;stroke-width:0.1;stroke-linecap:round;stroke-linejoin:round;stroke-miterlimit:4;stroke-dasharray:none;stroke-dashoffset:0;stroke-opacity:1" />
      <rect
         y="232.61948"
         x="118.525"
         height="24"
         width="127"
         id="rect9478"
         style="opacity:1;fill:#82a1ee;fill-opacity:1;stroke:#000000;stroke-width:1.04999995;stroke-linecap:round;stroke-linejoin:round;stroke-miterlimit:4;stroke-dasharray:none;stroke-dashoffset:0;stroke-opacity:1" />
    </g>
    <text
       xml:space="preserve"
       style="font-size:18.87083244px;font-style:normal;font-weight:normal;fill:#000000;fill-opacity:1;stroke:none;stroke-width:1px;stroke-linecap:butt;stroke-linejoin:miter;stroke-opacity:1;font-family:Bitstream Vera Sans"
       x="494.88187"
       y="143.99879"
       id="text5599"
       transform="scale(0.984704,1.015534)"><tspan
         sodipodi:role="line"
         id="tspan5601"
         x="494.88187"
         y="143.99879">OAR server</tspan></text>
    <g
       id="g9310"
       transform="translate(363.6151,-515)">
      <path
         transform="matrix(0.664538,0,0,1.011762,284.2454,192.7937)"
         style="font-size:12px;fill:url(#radialGradient9321);fill-opacity:1;fill-rule:evenodd;stroke:none;stroke-width:1pt"
         id="path727"
         d="M 585 398.61218 A 195.625 42.5 0 1 1  193.75,398.61218 A 195.625 42.5 0 1 1  585 398.61218 z"
         sodipodi:type="arc"
         sodipodi:ry="42.5"
         sodipodi:rx="195.625"
         sodipodi:cy="398.61218"
         sodipodi:cx="389.375" />
      <g
         transform="matrix(0.747868,0,0,0.7026,308.7485,249.3184)"
         id="g5886">
        <rect
           height="29.392923"
           id="rect728"
           style="font-size:12px;fill:url(#linearGradient9323);fill-opacity:1;fill-rule:evenodd;stroke:#000000;stroke-width:1.34545004;stroke-linejoin:bevel"
           transform="matrix(0.863764,-0.503897,-1.22588e-3,0.999999,0,0)"
           width="86.788055"
           x="486.01248"
           y="727.49573" />
        <rect
           height="86.516479"
           id="rect729"
           style="font-size:12px;fill:url(#linearGradient9325);fill-opacity:1;fill-rule:evenodd;stroke:#000000;stroke-width:1.77050042;stroke-linejoin:bevel"
           transform="matrix(1,0,-0.866907,0.498471,0,0)"
           width="248.75"
           x="1008.986"
           y="880.44714" />
        <path
           d="M 151.94712,481.85818 L 151.94712,513.10818 L 433.82212,513.10818 L 433.82212,481.85818 L 151.94712,481.85818 z M 159.75962,487.48318 C 161.31212,487.48318 162.57212,488.74318 162.57212,490.29568 C 162.57212,491.84818 161.31212,493.10818 159.75962,493.10818 C 158.20712,493.10818 156.94712,491.84818 156.94712,490.29568 C 156.94712,488.74318 158.20712,487.48318 159.75962,487.48318 z M 426.13462,487.48318 C 427.68712,487.48318 428.94712,488.74318 428.94712,490.29568 C 428.94712,491.84818 427.68712,493.10818 426.13462,493.10818 C 424.58212,493.10818 423.32212,491.84818 423.32212,490.29568 C 423.32212,488.74318 424.58212,487.48318 426.13462,487.48318 z M 159.75962,503.10818 C 161.31212,503.10818 162.57212,504.36818 162.57212,505.92068 C 162.57212,507.47318 161.31212,508.73318 159.75962,508.73318 C 158.20712,508.73318 156.94712,507.47318 156.94712,505.92068 C 156.94712,504.36818 158.20712,503.10818 159.75962,503.10818 z M 426.13462,503.10818 C 427.68712,503.10818 428.94712,504.36818 428.94712,505.92068 C 428.94712,507.47318 427.68712,508.73318 426.13462,508.73318 C 424.58212,508.73318 423.32212,507.47318 423.32212,505.92068 C 423.32212,504.36818 424.58212,503.10818 426.13462,503.10818 z "
           id="path789"
           style="font-size:12px;fill:url(#linearGradient9327);fill-opacity:1;fill-rule:evenodd;stroke:#000000;stroke-width:1pt" />
        <text
           space="preserve"
           id="text750"
           style="font-size:14px;font-style:italic;font-weight:bold;writing-mode:lr-tb;text-anchor:start;fill:url(#linearGradient9329);fill-opacity:1;stroke:#000000;stroke-width:0.25;stroke-linecap:butt;stroke-linejoin:miter;stroke-dasharray:none;stroke-opacity:1;font-family:Bitstream Vera Sans"
           x="180.84305"
           y="503.04468">
          <tspan
             sodipodi:role="line"
             id="tspan765"
             style="fill:url(#linearGradient9329);stroke:#000000;stroke-width:0.25;stroke-dasharray:none;stroke-opacity:1"
             x="180.84305"
             y="503.04468">LAME</tspan>
        </text>
        <path
           d="M 348.90625,481.46875 L 336.03125,512.84375 L 433.25,512.875 L 433.46875,481.625 L 348.90625,481.46875 z M 425.5625,487.25 C 427.115,487.25 428.375,488.51 428.375,490.0625 C 428.375,491.615 427.115,492.875 425.5625,492.875 C 424.01,492.875 422.75,491.615 422.75,490.0625 C 422.75,488.51 424.01,487.25 425.5625,487.25 z M 425.5625,502.875 C 427.115,502.875 428.375,504.135 428.375,505.6875 C 428.375,507.24 427.115,508.5 425.5625,508.5 C 424.01,508.5 422.75,507.24 422.75,505.6875 C 422.75,504.135 424.01,502.875 425.5625,502.875 z "
           id="path787"
           style="fill:url(#linearGradient9331);fill-opacity:1;fill-rule:evenodd;stroke:none;stroke-width:1pt;stroke-linecap:butt;stroke-linejoin:miter;stroke-opacity:1" />
        <rect
           height="31.25"
           id="rect744"
           style="font-size:12px;fill:none;fill-opacity:0.75;fill-rule:evenodd;stroke:#000000;stroke-width:1pt"
           width="281.875"
           x="152.09589"
           y="482.23718" />
      </g>
    </g>
    <path
       style="fill:none;fill-opacity:0.75;fill-rule:evenodd;stroke:#000000;stroke-width:3;stroke-linecap:round;stroke-linejoin:miter;marker-end:url(#Arrow2Mend);stroke-miterlimit:4;stroke-dasharray:none;stroke-opacity:1"
       d="M 278,175.09448 L 491,196.09448"
       id="path9372"
       sodipodi:nodetypes="cc" />
    <path
       style="fill:none;fill-opacity:0.75;fill-rule:evenodd;stroke:#000000;stroke-width:3;stroke-linecap:round;stroke-linejoin:miter;marker-end:none;stroke-miterlimit:4;stroke-dasharray:none;stroke-opacity:1;marker-start:url(#Arrow2Mstart)"
       d="M 917.1878,668.53356 C 291.0119,605.3875 291,605.09448 291,605.09448"
       id="path9376"
       sodipodi:nodetypes="cc" />
    <path
       style="fill:none;fill-opacity:0.75;fill-rule:evenodd;stroke:#000000;stroke-width:3;stroke-linecap:round;stroke-linejoin:miter;marker-end:url(#Arrow2Mend);stroke-miterlimit:4;stroke-dasharray:none;stroke-opacity:1"
       d="M 524,256.09448 L 287.52793,276.64015"
       id="path9378"
       sodipodi:nodetypes="cc" />
    <path
       style="fill:none;fill-opacity:0.75;fill-rule:evenodd;stroke:#000000;stroke-width:3;stroke-linecap:round;stroke-linejoin:miter;marker-end:url(#Arrow2Mend);stroke-miterlimit:4;stroke-dasharray:none;stroke-opacity:1"
       d="M 291,520.54624 L 810,564.09448"
       id="path9380"
       sodipodi:nodetypes="cc" />
    <path
       style="fill:none;fill-opacity:0.75;fill-rule:evenodd;stroke:#000000;stroke-width:3;stroke-linecap:round;stroke-linejoin:miter;marker-end:url(#Arrow2Mend);stroke-miterlimit:4;stroke-dasharray:none;stroke-opacity:1"
       d="M 283,338.59448 L 812.5635,373.71631"
       id="path9382"
       sodipodi:nodetypes="cc" />
    <path
       style="fill:none;fill-opacity:0.75;fill-rule:evenodd;stroke:#000000;stroke-width:3;stroke-linecap:round;stroke-linejoin:miter;marker-end:url(#Arrow2Mend);stroke-miterlimit:4;stroke-dasharray:none;stroke-opacity:1"
       d="M 576,199.09448 L 833,222.09448"
       id="path9384"
       sodipodi:nodetypes="cc" />
    <path
       style="opacity:0.69639797;fill:#ffffff;fill-opacity:0.07563028;fill-rule:evenodd;stroke:#000000;stroke-width:4.05110788;stroke-linecap:round;stroke-linejoin:miter;marker-end:none;stroke-miterlimit:4;stroke-dasharray:4.05110793, 8.10221591;stroke-dashoffset:0;stroke-opacity:1"
       d="M 543.68067,389.77349 L 543.97445,513.06893"
       id="path9388"
       sodipodi:nodetypes="cc" />
    <text
       xml:space="preserve"
       style="font-size:18.87084007px;font-style:normal;font-weight:normal;fill:#000000;fill-opacity:1;stroke:none;stroke-width:1px;stroke-linecap:butt;stroke-linejoin:miter;stroke-opacity:1;font-family:Bitstream Vera Sans"
       x="519.95331"
       y="199.55476"
       id="text9390"
       transform="scale(0.984704,1.015534)"><tspan
         sodipodi:role="line"
         id="tspan9392"
         x="519.95331"
         y="199.55476">bipbip</tspan></text>
    <text
       xml:space="preserve"
       style="font-size:18.87084198px;font-style:normal;font-weight:normal;fill:#000000;fill-opacity:1;stroke:none;stroke-width:1px;stroke-linecap:butt;stroke-linejoin:miter;stroke-opacity:1;font-family:Bitstream Vera Sans"
       x="502.54004"
       y="305.58432"
       id="text9394"
       transform="matrix(0.982305,6.868948e-2,-7.084007e-2,1.01306,0,0)"><tspan
         sodipodi:role="line"
         id="tspan9396"
         x="502.54004"
         y="305.58432">give shell to user</tspan></text>
    <text
       xml:space="preserve"
       style="font-size:18.87084579px;font-style:normal;font-weight:normal;fill:#000000;fill-opacity:1;stroke:none;stroke-width:1px;stroke-linecap:butt;stroke-linejoin:miter;stroke-opacity:1;font-family:Bitstream Vera Sans"
       x="330.85233"
       y="308.43906"
       id="text9398"
       transform="matrix(0.982305,-6.868947e-2,7.084006e-2,1.01306,0,0)"><tspan
         sodipodi:role="line"
         id="tspan9400"
         x="330.85233"
         y="308.43906">job launched</tspan></text>
    <text
       xml:space="preserve"
       style="font-size:18.87084007px;font-style:normal;font-weight:normal;fill:#000000;fill-opacity:1;stroke:none;stroke-width:1px;stroke-linecap:butt;stroke-linejoin:miter;stroke-opacity:1;font-family:Bitstream Vera Sans"
       x="345.40604"
       y="302.00537"
       id="text9402"
       transform="matrix(0.976939,-0.123416,0.12728,1.007526,0,0)"><tspan
         sodipodi:role="line"
         id="tspan9404"
         x="345.40604"
         y="302.00537">ACK</tspan></text>
    <text
       xml:space="preserve"
       style="font-size:18.87084007px;font-style:normal;font-weight:normal;fill:#000000;fill-opacity:1;stroke:none;stroke-width:1px;stroke-linecap:butt;stroke-linejoin:miter;stroke-opacity:1;font-family:Bitstream Vera Sans"
       x="185.817"
       y="177.89128"
       id="text9406"
       transform="scale(0.984704,1.015534)"><tspan
         sodipodi:role="line"
         id="tspan9408"
         x="185.817"
         y="177.89128">oarsub -I</tspan></text>
    <text
       xml:space="preserve"
       style="font-size:18.87084389px;font-style:normal;font-weight:normal;fill:#000000;fill-opacity:1;stroke:none;stroke-width:1px;stroke-linecap:butt;stroke-linejoin:miter;stroke-opacity:1;font-family:Bitstream Vera Sans"
       x="860.28058"
       y="376.96738"
       id="text9410"
       transform="scale(0.984704,1.015534)"><tspan
         sodipodi:role="line"
         id="tspan9412"
         x="860.28058"
         y="376.96738">oarexecuser.sh</tspan></text>
    <text
       xml:space="preserve"
       style="font-size:18.87083626px;font-style:normal;font-weight:normal;fill:#000000;fill-opacity:1;stroke:none;stroke-width:1px;stroke-linecap:butt;stroke-linejoin:miter;stroke-opacity:1;font-family:Bitstream Vera Sans"
       x="887.54285"
       y="223.6208"
       id="text9414"
       transform="scale(0.984704,1.015534)"><tspan
         sodipodi:role="line"
         id="tspan9416"
         x="887.54285"
         y="223.6208">oarexec</tspan></text>
    <text
       xml:space="preserve"
       style="font-size:18.87085342px;font-style:normal;font-weight:normal;fill:#000000;fill-opacity:1;stroke:none;stroke-width:1px;stroke-linecap:butt;stroke-linejoin:miter;stroke-opacity:1;font-family:Bitstream Vera Sans"
       x="438.97067"
       y="329.77707"
       id="text9418"
       transform="matrix(0.982305,6.868948e-2,-7.084007e-2,1.01306,0,0)"><tspan
         sodipodi:role="line"
         id="tspan9420"
         x="438.97067"
         y="329.77707">and set environnment variables</tspan></text>
    <text
       xml:space="preserve"
       style="font-size:18.87085152px;font-style:normal;font-weight:normal;fill:#000000;fill-opacity:1;stroke:none;stroke-width:1px;stroke-linecap:butt;stroke-linejoin:miter;stroke-opacity:1;font-family:Bitstream Vera Sans"
       x="229.51064"
       y="517.78003"
       id="text9422"
       transform="scale(0.984704,1.015534)"><tspan
         sodipodi:role="line"
         id="tspan9424"
         x="229.51064"
         y="517.78003">exit</tspan></text>
    <text
       xml:space="preserve"
       style="font-size:18.87086678px;font-style:normal;font-weight:normal;fill:#000000;fill-opacity:1;stroke:none;stroke-width:1px;stroke-linecap:butt;stroke-linejoin:miter;stroke-opacity:1;font-family:Bitstream Vera Sans"
       x="190.6368"
       y="662.79871"
       id="text9426"
       transform="scale(0.984704,1.015534)"><tspan
         sodipodi:role="line"
         id="tspan9428"
         x="190.6368"
         y="662.79871">End of oarsub</tspan></text>
    <text
       xml:space="preserve"
       style="font-size:18.87087059px;font-style:normal;font-weight:normal;fill:#000000;fill-opacity:1;stroke:none;stroke-width:1px;stroke-linecap:butt;stroke-linejoin:miter;stroke-opacity:1;font-family:Bitstream Vera Sans"
       x="848.98627"
       y="562.09167"
       id="text9430"
       transform="scale(0.984704,1.015534)"><tspan
         sodipodi:role="line"
         id="tspan9432"
         x="848.98627"
         y="562.09167">END oarexecuser.sh</tspan></text>
    <text
       xml:space="preserve"
       style="font-size:18.87087059px;font-style:normal;font-weight:normal;fill:#000000;fill-opacity:1;stroke:none;stroke-width:1px;stroke-linecap:butt;stroke-linejoin:miter;stroke-opacity:1;font-family:Bitstream Vera Sans"
       x="575.06146"
       y="557.34662"
       id="text9436"
       transform="matrix(0.97931,0.10293,-0.106152,1.00997,0,0)"><tspan
         sodipodi:role="line"
         id="tspan9438"
         x="575.06146"
         y="557.34662">notify oarexec : END</tspan></text>
    <text
       xml:space="preserve"
       style="font-size:18.87086678px;font-style:normal;font-weight:normal;fill:#000000;fill-opacity:1;stroke:none;stroke-width:1px;stroke-linecap:butt;stroke-linejoin:miter;stroke-opacity:1;font-family:Bitstream Vera Sans"
       x="557.31427"
       y="479.17737"
       id="text9440"
       transform="matrix(0.980957,8.582261e-2,-8.850962e-2,1.011669,0,0)"><tspan
         sodipodi:role="line"
         id="tspan9442"
         x="557.31427"
         y="479.17737">close shell</tspan></text>
    <path
       style="fill:none;fill-opacity:0.75;fill-rule:evenodd;stroke:#000000;stroke-width:3;stroke-linecap:round;stroke-linejoin:miter;marker-end:url(#Arrow2Mend);stroke-miterlimit:4;stroke-dasharray:none;stroke-opacity:1"
       d="M 841,236.09448 L 570,256.55893"
       id="path9444"
       sodipodi:nodetypes="cc" />
    <text
       xml:space="preserve"
       style="font-size:18.87085152px;font-style:normal;font-weight:normal;fill:#000000;fill-opacity:1;stroke:none;stroke-width:1px;stroke-linecap:butt;stroke-linejoin:miter;stroke-opacity:1;font-family:Bitstream Vera Sans"
       x="611.68939"
       y="308.58688"
       id="text9446"
       transform="matrix(0.982305,-6.868947e-2,7.084006e-2,1.01306,0,0)"><tspan
         sodipodi:role="line"
         id="tspan9448"
         x="611.68939"
         y="308.58688">oarexec init finished</tspan></text>
    <path
       style="fill:none;fill-opacity:0.75;fill-rule:evenodd;stroke:#000000;stroke-width:3;stroke-linecap:round;stroke-linejoin:miter;marker-end:none;stroke-miterlimit:4;stroke-dasharray:3,9;stroke-opacity:1;stroke-dashoffset:0;opacity:0.7084048"
       d="M 538.57359,206.09448 L 538.47722,260.60716"
       id="path9450"
       sodipodi:nodetypes="cc" />
    <path
       style="opacity:0.70840478;fill:none;fill-opacity:0.75;fill-rule:evenodd;stroke:#000000;stroke-width:2.53604579;stroke-linecap:round;stroke-linejoin:miter;marker-end:none;stroke-miterlimit:4;stroke-dasharray:2.53604589, 7.60813768;stroke-dashoffset:0;stroke-opacity:1"
       d="M 916.29021,388.09448 L 916.26802,557.29551"
       id="path9452"
       sodipodi:nodetypes="cc" />
    <path
       style="opacity:0.70840478;fill:none;fill-opacity:0.75;fill-rule:evenodd;stroke:#000000;stroke-width:2.51583362;stroke-linecap:round;stroke-linejoin:miter;marker-end:none;stroke-miterlimit:4;stroke-dasharray:2.51583363, 7.54750093;stroke-dashoffset:0;stroke-opacity:1"
       d="M 929.1268,234.4641 L 929.13507,684.09448"
       id="path9454"
       sodipodi:nodetypes="cc" />
    <text
       xml:space="preserve"
       style="font-size:18.87085152px;font-style:normal;font-weight:normal;fill:#000000;fill-opacity:1;stroke:none;stroke-width:1px;stroke-linecap:butt;stroke-linejoin:miter;stroke-opacity:1;font-family:Bitstream Vera Sans"
       x="869.29694"
       y="687.14911"
       id="text9456"
       transform="scale(0.984704,1.015534)"><tspan
         sodipodi:role="line"
         id="tspan9458"
         x="869.29694"
         y="687.14911">Enf of oarexec</tspan></text>
  </g>
</svg>
